<?xml version="1.0" encoding="utf-8"?><svg version="1.1" id="Layer_1" xmlns="http://www.w3.org/2000/svg" xmlns:xlink="http://www.w3.org/1999/xlink" x="0px" y="0px" viewBox="0 0 101.52 122.88" style="enable-background:new 0 0 101.52 122.88" xml:space="preserve"><style type="text/css">.st0{fill-rule:evenodd;clip-rule:evenodd;}</style><g><path class="st0" d="M25.73,87.87c1.9-22.06,5.7-40.18,21.5-47.37c8.89,26.88,1.86,52.62-8.49,82.38h16.13 c10.12-47.61,4.97-65.06-1.19-80.59c9.73,6.12,18.4,19.33,26.7,40.27c11.65-21.72,4.25-37.66-23.41-48.02 c15.82-4.89,30.65,1.35,44.56,13.66c-7.45-28.07-28.7-34.87-47.68-18.84C56.44,9.25,48.14,4.41,37.02,0 c5.23,7.96,9.2,16.26,8.6,25.8C28.46,10.05,14.19,15.88,1,29.75c12.65-2.96,25.74-4.2,36.79,3.2C17.96,30.43,6.86,41.61,0,56.29 c8.3-7.6,16.11-12.52,24.41-13.42C15.71,58.64,19.56,72.58,25.73,87.87L25.73,87.87z"/></g></svg>