<?xml version="1.0" encoding="utf-8"?><svg version="1.1" id="Layer_1" xmlns="http://www.w3.org/2000/svg" xmlns:xlink="http://www.w3.org/1999/xlink" x="0px" y="0px" viewBox="0 0 122.88 116.74" style="enable-background:new 0 0 122.88 116.74" xml:space="preserve"><style type="text/css">.st0{fill-rule:evenodd;clip-rule:evenodd;}</style><g><path class="st0" d="M66.41,100.51h21.91c1.76-1.75,3.69-3.57,5.65-5.42c4.11-3.89,8.4-7.95,12.81-13.03 c5.04-5.81,5.58-7.82,7.11-13.51c0.29-1.07,0.61-2.27,1.03-3.76l2.62-9.21l0.03-0.1c1.4-4.1,1.51-6.81,0.93-8.37 c-0.18-0.48-0.41-0.8-0.68-0.97c-0.21-0.14-0.49-0.19-0.78-0.16c-0.68,0.07-1.45,0.5-2.15,1.27l-7.78,18.53 c-0.07,0.17-0.17,0.33-0.28,0.47c-0.46,0.83-1.08,1.64-1.88,2.41l-13.8,15.39c-0.75,0.84-2.04,0.91-2.87,0.16 c-0.84-0.75-0.91-2.04-0.16-2.87l13.81-15.39c0.06-0.07,0.12-0.14,0.19-0.2c1.43-1.36,1.88-2.83,1.63-3.9 c-0.08-0.33-0.22-0.61-0.42-0.8c-0.19-0.17-0.44-0.29-0.75-0.32v0c-1.23-0.13-3.04,0.78-5.25,3.39l0,0 c-0.06,0.07-0.13,0.14-0.2,0.21l-5.35,4.72l-0.03,0.03c-5.79,5.48-8.28,6.78-12.82,9.15c-0.95,0.5-1.99,1.04-3.28,1.74 c-0.51,0.28-1.01,0.62-1.5,0.99c-0.52,0.4-1.02,0.81-1.49,1.21c-2.4,2.02-3.66,3.66-4.38,5.47c-0.75,1.88-1.02,4.17-1.39,7.31 c-0.15,1.27-0.26,2.52-0.35,3.77C66.47,99.32,66.44,99.92,66.41,100.51L66.41,100.51L66.41,100.51z M21.72,48.17 c0-17.15,16.19-7.65,17.43-18.17c0.14-1.15-2.57-5.51-3.18-7.6c-1.32-2.11-1.8-5.46-0.35-7.7c0.58-0.89,0.33-4.12,0.33-5.34 c0-3.45,1.63-5.43,3.83-7.27c0.81-0.67,0.95-1.48,2.12-1.77c5.81-1.41,15.32,1.79,15.32,9.04c0,1.54-0.35,4.36,0.48,5.57 c0.81,1.17,0.91,2.87,0.62,4.46c-0.32,0.25-0.63,0.51-0.94,0.78c-0.69,0.61-1.38,1.3-2.06,2.03c-0.03,0.03-0.06,0.06-0.09,0.09 l-0.01,0.01l0,0c-0.33,0.32-0.57,0.74-0.7,1.21c-0.27,1.01,0.07,2.05,0.8,2.71c-0.86,1.6-1.63,3.11-1.5,3.78 c0.21,1.08,1.01,2.07,2.16,2.99l0,0.02c0,0.06,0.01,0.11,0.01,0.17c0.04,0.39,0.1,0.77,0.19,1.1c0.1,0.37,0.24,0.74,0.42,1.09 c0.3,0.6,0.71,1.12,1.23,1.54c0.26,0.21,0.54,0.39,0.84,0.53c0.08,0.09,0.16,0.18,0.23,0.27l0.13,0.15 c-2.37,0.45-4.01,0.88-5.39,2.25c-1.53,1.52-2.12,3.65-2.12,7.5c0,0.19,0.02,0.38,0.05,0.56L21.72,48.17L21.72,48.17L21.72,48.17z M71.52,18.8c2.91-17.16,19.68-16.75,22.2,1.23c1.66,11.84,8.75,11.41-2.33,11.41h-4.42c-0.02,3.01-0.49,4.55,2.64,6.25 c3.12,1.69,11.55,2.56,11.55,6.84v2.74c0,0.22-0.18,0.4-0.4,0.4l-19.44,0l0-0.06c0-3.85-0.59-5.98-2.12-7.5 c-1.21-1.2-2.61-1.67-4.53-2.07c0.38-0.17,0.74-0.36,1.08-0.56c2.75-1.65,2.28-3.3,2.26-6.03h-1.19c-0.02-0.14-0.04-0.27-0.07-0.4 l0,0c-0.13-0.6-0.34-1.18-0.65-1.7c-0.05-0.09-0.11-0.18-0.17-0.27v-0.4c0.37-1.37,0.46-2.87,0.23-4.27 c-0.27-1.57-0.95-3.04-2.12-4.14c-0.6-0.57-1.27-0.99-2-1.28C71.86,18.91,71.69,18.85,71.52,18.8L71.52,18.8L71.52,18.8z M57.13,24.21c4.16-4.59,8.96-7.08,12.56-3c0.94,0.04,1.79,0.36,2.49,1.02c1.48,1.39,1.71,4,1.03,6.06v1.81 c0.46,0.3,0.75,0.87,0.89,1.51c0.09,0.41,0.11,0.87,0.07,1.31c-0.04,0.45-0.16,0.88-0.34,1.24c-0.26,0.51-0.65,0.87-1.18,0.94 c-0.52,0.55-1.03,1.15-1.48,1.72c-0.5,0.63-0.92,1.22-1.22,1.7c-0.23,0.37-0.16,0.62-0.07,0.9c0.04,0.14,0.08,0.29,0.11,0.44 c0.91,0.2,1.73,0.35,2.47,0.49c4.69,0.88,6.15,1.15,6.15,7.25c0,0.31-0.25,0.56-0.56,0.56H54.8c-0.31,0-0.56-0.25-0.56-0.56 c0-6.1,1.45-6.38,6.15-7.25c0.74-0.14,1.58-0.3,2.49-0.49c0.03-0.12,0.07-0.23,0.11-0.35c0.1-0.27,0.19-0.54-0.09-0.99 c-0.3-0.49-0.72-1.08-1.22-1.7c-0.45-0.57-0.96-1.16-1.48-1.72c-0.53-0.08-0.92-0.44-1.18-0.94c-0.18-0.35-0.29-0.79-0.34-1.24 c-0.04-0.44-0.02-0.89,0.07-1.31c0.13-0.64,0.42-1.2,0.88-1.5l-0.61-0.36C58.85,27.94,59.33,24.81,57.13,24.21L57.13,24.21 L57.13,24.21L57.13,24.21z M56.47,100.51H34.55c-1.76-1.75-3.69-3.57-5.65-5.42c-4.11-3.89-8.4-7.95-12.81-13.03 c-5.04-5.81-5.58-7.82-7.11-13.51c-0.29-1.07-0.61-2.27-1.03-3.76l-2.62-9.21l-0.03-0.1c-1.4-4.1-1.51-6.81-0.93-8.37 c0.18-0.48,0.41-0.8,0.68-0.97c0.21-0.14,0.49-0.19,0.78-0.16c0.68,0.07,1.45,0.5,2.15,1.27l7.78,18.53 c0.07,0.17,0.17,0.33,0.28,0.47c0.46,0.83,1.08,1.64,1.88,2.41l13.8,15.39c0.75,0.84,2.04,0.91,2.87,0.16s0.91-2.04,0.16-2.87 L20.96,65.93c-0.06-0.07-0.12-0.14-0.19-0.2c-1.43-1.36-1.88-2.83-1.63-3.9c0.08-0.33,0.22-0.61,0.42-0.8 c0.19-0.17,0.44-0.29,0.75-0.32v0c1.23-0.13,3.05,0.78,5.25,3.39c0,0,0.19,0.19,0.21,0.21l5.35,4.72l0.03,0.03 c5.79,5.48,8.28,6.78,12.82,9.15c0.95,0.5,1.99,1.04,3.28,1.74c0.51,0.28,1.01,0.62,1.5,0.99c0.52,0.4,1.02,0.81,1.49,1.21 c2.4,2.02,3.66,3.66,4.38,5.47c0.75,1.88,1.02,4.17,1.39,7.31c0.15,1.27,0.26,2.52,0.35,3.77C56.41,99.32,56.44,99.92,56.47,100.51 L56.47,100.51L56.47,100.51z M29.45,101.21c-0.31,0.36-0.5,0.83-0.5,1.34v12.14c0,1.13,0.92,2.04,2.04,2.04h27.58 c1.13,0,2.04-0.92,2.04-2.04v-12.26c0-1.3-0.08-2.7-0.17-4c-0.09-1.33-0.21-2.65-0.36-3.96c-0.4-3.43-0.7-5.94-1.66-8.35 c-0.99-2.47-2.58-4.6-5.53-7.09c-0.54-0.46-1.09-0.92-1.67-1.35c-0.61-0.46-1.27-0.9-2.01-1.31c-1.2-0.65-2.32-1.24-3.34-1.78 c-4.2-2.2-6.5-3.4-11.91-8.52c-0.04-0.04-0.09-0.08-0.13-0.11l-5.22-4.61c-3.19-3.73-6.31-4.97-8.7-4.71l-0.01,0v0 c-1.17,0.12-2.17,0.58-2.97,1.28l-5.27-12.56l-0.01,0c-0.08-0.18-0.18-0.35-0.31-0.51c-1.46-1.75-3.31-2.77-5.08-2.95 c-1.21-0.12-2.38,0.14-3.4,0.8c-0.97,0.63-1.77,1.61-2.27,2.96c-0.88,2.35-0.86,6,0.86,11.05l2.6,9.15 c0.38,1.32,0.71,2.59,1.02,3.71c1.7,6.35,2.3,8.6,7.97,15.12c4.49,5.17,8.88,9.33,13.1,13.32 C27.23,99.09,28.33,100.14,29.45,101.21L29.45,101.21L29.45,101.21z M33.35,104.59c0.27,0.06,0.55,0.06,0.83,0h22.34v8.06H33.03 v-8.06H33.35L33.35,104.59z M93.43,101.21c0.31,0.36,0.5,0.83,0.5,1.34v12.14c0,1.13-0.91,2.04-2.04,2.04H64.32 c-1.13,0-2.04-0.92-2.04-2.04v-12.26c0-0.07,0-0.15,0.01-0.22c0.03-1.31,0.08-2.58,0.16-3.78c0.09-1.33,0.21-2.65,0.36-3.96 c0.4-3.43,0.7-5.94,1.66-8.35c0.99-2.47,2.58-4.6,5.53-7.09c0.54-0.46,1.09-0.92,1.67-1.35c0.61-0.46,1.27-0.9,2.01-1.31 c1.2-0.65,2.32-1.24,3.34-1.78c4.2-2.2,6.5-3.4,11.91-8.52c0.04-0.04,0.09-0.08,0.13-0.11l5.22-4.61c3.19-3.73,6.31-4.97,8.7-4.71 l0.01,0v0c1.17,0.12,2.17,0.58,2.97,1.28l5.27-12.56l0.01,0c0.08-0.18,0.18-0.35,0.31-0.51c1.46-1.75,3.31-2.77,5.08-2.95 c1.21-0.12,2.38,0.14,3.4,0.8c0.97,0.63,1.77,1.61,2.27,2.96c0.88,2.35,0.86,6-0.86,11.05l-2.6,9.15 c-0.38,1.32-0.71,2.59-1.02,3.71c-1.7,6.35-2.3,8.6-7.97,15.12c-4.49,5.17-8.88,9.33-13.1,13.32 C95.65,99.09,94.55,100.14,93.43,101.21L93.43,101.21L93.43,101.21z M89.53,104.59c-0.27,0.06-0.55,0.06-0.83,0H66.36v8.06h23.49 v-8.06H89.53L89.53,104.59z"/></g></svg>