<svg xmlns="http://www.w3.org/2000/svg" shape-rendering="geometricPrecision" text-rendering="geometricPrecision" image-rendering="optimizeQuality" fill-rule="evenodd" clip-rule="evenodd" viewBox="0 0 512 438.37"><path d="M280.48 121.98c-.62-5.11 14.54-24.64 17.32-34 5.94-9.42 8.04-24.43 1.57-34.4-2.57-3.96-1.47-7.39-1.47-12.86 0-54.28-95.1-54.3-95.1 0 0 6.85 1.57 8.47-2.13 13.89-6.23 9.01-3.03 25.02 2.23 33.4 3.37 9.84 19.27 28.43 18.17 33.99-1 27.86 59.58 26.94 59.41-.02zM114.5 383.61V225.86h70.96c30.08 5.39 60.15 21.71 90.24 40.64h55.11c24.95 1.49 38.03 26.78 13.76 43.41-19.31 14.18-44.82 13.37-70.97 11.02-18.03-.9-18.8 23.33 0 23.41 6.54.52 13.63-1.02 19.82-1.02 32.65-.05 59.48-6.28 75.93-32.05l8.25-19.26 81.98-40.64c41.02-13.5 70.16 29.4 39.96 59.26-59.4 43.2-120.28 78.75-182.58 107.46-45.23 27.51-90.48 26.57-135.69 0l-66.77-34.48zM0 210.7h93.13v188.76H0V210.7zm389.62-34.05h2.69c2.41 0 4.4-1.99 4.4-4.41v-7.12c0-2.41-1.99-4.4-4.4-4.4h-15.93c-2.41 0-4.4 1.99-4.4 4.4v7.12c0 2.42 1.99 4.41 4.4 4.41h2.73l-5.23 26.54h20.76l-5.02-26.54zm-27.86-38.74c.5-4.1-11.69-19.8-13.92-27.32-4.78-7.58-6.47-19.64-1.27-27.66 2.07-3.18 1.19-5.94 1.19-10.34 0-43.62 76.44-43.64 76.44 0 0 5.51-1.26 6.81 1.71 11.17 5 7.24 2.44 20.11-1.79 26.85-2.71 7.91-15.5 22.84-14.61 27.32.81 22.4-47.89 21.65-47.75-.02zm59.34 13.08c9.39 6.01 22.72 10.94 33.37 14.5 20.93 6.96 20.87 7.94 20.72 37.7h-73.94l19.85-52.2zm-175.29 19.18h-3.34c-3 0-5.46-2.48-5.46-5.48v-8.86c0-3.01 2.46-5.48 5.46-5.48h19.81c3.01 0 5.48 2.47 5.48 5.48v8.86c0 3-2.47 5.48-5.48 5.48h-3.38l6.49 33.02h-25.82l6.24-33.02zm114.24 33.02c-2.57-33.31 3.95-31.87-23.93-42.3-13.92-5.21-26.29-11.82-39.06-19.81l-23.93 62.11h86.92zm-153.39-64.94c-11.7 7.47-22.86 13.62-36.12 18.04-26.03 8.66-25.95 9.87-25.78 46.9h86.59l-24.69-64.94z"/></svg>